<?xml version="1.0" encoding="UTF-8" standalone="no"?>
<!DOCTYPE svg PUBLIC "-//W3C//DTD SVG 1.1//EN"
 "http://www.w3.org/Graphics/SVG/1.1/DTD/svg11.dtd">
<!-- Generated by graphviz version 2.43.0 (0)
 -->
<!-- Title: DFA Pages: 1 -->
<svg width="4417pt" height="2715pt"
 viewBox="0.00 0.00 4417.13 2715.28" xmlns="http://www.w3.org/2000/svg" xmlns:xlink="http://www.w3.org/1999/xlink">
<g id="graph0" class="graph" transform="scale(1 1) rotate(0) translate(4 2711.28)">
<title>DFA</title>
<polygon fill="white" stroke="transparent" points="-4,4 -4,-2711.28 4413.13,-2711.28 4413.13,4 -4,4"/>
<!-- {end,j1end,j1sj1start,j1sj2start,j1sstart,j1start,j2l1end,j2l1j1end,j2l1j1start,j2l1j2j1start,j2l1j2j2j1start,j2l1j2j2j2start,j2l1j2j2start,j2l1j2start,j2l1start,j2l2start,j2start,start} -->
<g id="node1" class="node">
<title>{end,j1end,j1sj1start,j1sj2start,j1sstart,j1start,j2l1end,j2l1j1end,j2l1j1start,j2l1j2j1start,j2l1j2j2j1start,j2l1j2j2j2start,j2l1j2j2start,j2l1j2start,j2l1start,j2l2start,j2start,start}</title>
<ellipse fill="none" stroke="black" cx="935.97" cy="-1874.61" rx="828.85" ry="828.85"/>
<ellipse fill="none" stroke="black" cx="935.97" cy="-1874.61" rx="832.85" ry="832.85"/>
<text text-anchor="middle" x="935.97" y="-1870.91" font-family="Times,serif" font-size="14.00">{end,j1end,j1sj1start,j1sj2start,j1sstart,j1start,j2l1end,j2l1j1end,j2l1j1start,j2l1j2j1start,j2l1j2j2j1start,j2l1j2j2j2start,j2l1j2j2start,j2l1j2start,j2l1start,j2l2start,j2start,start}</text>
</g>
<!-- {j2l1end,j2l1j2end,j2l1j2j2end,j2l1j2j2j2end,j2l2start} -->
<g id="node3" class="node">
<title>{j2l1end,j2l1j2end,j2l1j2j2end,j2l1j2j2j2end,j2l2start}</title>
<ellipse fill="none" stroke="black" cx="3311.82" cy="-2215.61" rx="265.35" ry="265.35"/>
<text text-anchor="middle" x="3311.82" y="-2211.91" font-family="Times,serif" font-size="14.00">{j2l1end,j2l1j2end,j2l1j2j2end,j2l1j2j2j2end,j2l2start}</text>
</g>
<!-- {end,j1end,j1sj1start,j1sj2start,j1sstart,j1start,j2l1end,j2l1j1end,j2l1j1start,j2l1j2j1start,j2l1j2j2j1start,j2l1j2j2j2start,j2l1j2j2start,j2l1j2start,j2l1start,j2l2start,j2start,start}&#45;&gt;{j2l1end,j2l1j2end,j2l1j2j2end,j2l1j2j2j2end,j2l2start} -->
<g id="edge2" class="edge">
<title>{end,j1end,j1sj1start,j1sj2start,j1sstart,j1start,j2l1end,j2l1j1end,j2l1j1start,j2l1j2j1start,j2l1j2j2j1start,j2l1j2j2j2start,j2l1j2j2start,j2l1j2start,j2l1start,j2l2start,j2start,start}&#45;&gt;{j2l1end,j2l1j2end,j2l1j2j2end,j2l1j2j2j2end,j2l2start}</title>
<path fill="none" stroke="black" d="M1715.24,-2168.7C1739.18,-2174.19 1763.02,-2179.19 1786.65,-2183.61 2217.84,-2264.25 2729.58,-2253.89 3036.83,-2236.55"/>
<polygon fill="black" stroke="black" points="3037.44,-2240.02 3047.22,-2235.96 3037.04,-2233.03 3037.44,-2240.02"/>
<text text-anchor="middle" x="2381.6" y="-2252.41" font-family="Times,serif" font-size="14.00">i</text>
</g>
<!-- {end,j1end,j1send,j1sj1end,j1sj1start,j1sj2start,j1sstart,j1start,j2l1end,j2l1j2end,j2l1j2j2end,j2l1j2j2j1end,j2l2start} -->
<g id="node4" class="node">
<title>{end,j1end,j1send,j1sj1end,j1sj1start,j1sj2start,j1sstart,j1start,j2l1end,j2l1j2end,j2l1j2j2end,j2l1j2j2j1end,j2l2start}</title>
<ellipse fill="none" stroke="black" cx="2381.6" cy="-1578.61" rx="558.9" ry="558.9"/>
<ellipse fill="none" stroke="black" cx="2381.6" cy="-1578.61" rx="562.9" ry="562.9"/>
<text text-anchor="middle" x="2381.6" y="-1574.91" font-family="Times,serif" font-size="14.00">{end,j1end,j1send,j1sj1end,j1sj1start,j1sj2start,j1sstart,j1start,j2l1end,j2l1j2end,j2l1j2j2end,j2l1j2j2j1end,j2l2start}</text>
</g>
<!-- {end,j1end,j1sj1start,j1sj2start,j1sstart,j1start,j2l1end,j2l1j1end,j2l1j1start,j2l1j2j1start,j2l1j2j2j1start,j2l1j2j2j2start,j2l1j2j2start,j2l1j2start,j2l1start,j2l2start,j2start,start}&#45;&gt;{end,j1end,j1send,j1sj1end,j1sj1start,j1sj2start,j1sstart,j1start,j2l1end,j2l1j2end,j2l1j2j2end,j2l1j2j2j1end,j2l2start} -->
<g id="edge3" class="edge">
<title>{end,j1end,j1sj1start,j1sj2start,j1sstart,j1start,j2l1end,j2l1j1end,j2l1j1start,j2l1j2j1start,j2l1j2j2j1start,j2l1j2j2j2start,j2l1j2j2start,j2l1j2start,j2l1start,j2l2start,j2start,start}&#45;&gt;{end,j1end,j1send,j1sj1end,j1sj1start,j1sj2start,j1sstart,j1start,j2l1end,j2l1j2end,j2l1j2j2end,j2l1j2j2j1end,j2l2start}</title>
<path fill="none" stroke="black" d="M1751.86,-1707.52C1774.7,-1702.84 1797.41,-1698.18 1819.9,-1693.57"/>
<polygon fill="black" stroke="black" points="1820.77,-1696.97 1829.86,-1691.53 1819.36,-1690.11 1820.77,-1696.97"/>
<text text-anchor="middle" x="1793.65" y="-1704.41" font-family="Times,serif" font-size="14.00">m</text>
</g>
<!-- {end,j2end,j2l2end} -->
<g id="node5" class="node">
<title>{end,j2end,j2l2end}</title>
<ellipse fill="none" stroke="black" cx="3996.36" cy="-1920.61" rx="105.88" ry="105.88"/>
<ellipse fill="none" stroke="black" cx="3996.36" cy="-1920.61" rx="109.88" ry="109.88"/>
<text text-anchor="middle" x="3996.36" y="-1916.91" font-family="Times,serif" font-size="14.00">{end,j2end,j2l2end}</text>
</g>
<!-- {end,j1end,j1sj1start,j1sj2start,j1sstart,j1start,j2l1end,j2l1j1end,j2l1j1start,j2l1j2j1start,j2l1j2j2j1start,j2l1j2j2j2start,j2l1j2j2start,j2l1j2start,j2l1start,j2l2start,j2start,start}&#45;&gt;{end,j2end,j2l2end} -->
<g id="edge4" class="edge">
<title>{end,j1end,j1sj1start,j1sj2start,j1sstart,j1start,j2l1end,j2l1j1end,j2l1j1start,j2l1j2j1start,j2l1j2j2j1start,j2l1j2j2j2start,j2l1j2j2start,j2l1j2start,j2l1start,j2l2start,j2start,start}&#45;&gt;{end,j2end,j2l2end}</title>
<path fill="none" stroke="black" d="M1727.34,-2134.43C1758.01,-2140.56 1788.52,-2146 1818.65,-2150.61 1880.48,-2160.06 2895.44,-2189.35 2944.55,-2150.61 3019.53,-2091.45 2920.19,-2001.55 2994.55,-1941.61 3028.3,-1914.39 3617.73,-1916.85 3875.89,-1919.25"/>
<polygon fill="black" stroke="black" points="3876.02,-1922.75 3886.06,-1919.35 3876.09,-1915.75 3876.02,-1922.75"/>
<text text-anchor="middle" x="2969.55" y="-2133.41" font-family="Times,serif" font-size="14.00">s</text>
</g>
<!-- {end,j1end,j1send,j1sj1start,j1sj2end,j1sj2start,j1sstart,j1start,j2l1end,j2l1j2end,j2l1j2j1end,j2l2start} -->
<g id="node6" class="node">
<title>{end,j1end,j1send,j1sj1start,j1sj2end,j1sj2start,j1sstart,j1start,j2l1end,j2l1j2end,j2l1j2j1end,j2l2start}</title>
<ellipse fill="none" stroke="black" cx="2381.6" cy="-498.61" rx="494.71" ry="494.71"/>
<ellipse fill="none" stroke="black" cx="2381.6" cy="-498.61" rx="498.71" ry="498.71"/>
<text text-anchor="middle" x="2381.6" y="-494.91" font-family="Times,serif" font-size="14.00">{end,j1end,j1send,j1sj1start,j1sj2end,j1sj2start,j1sstart,j1start,j2l1end,j2l1j2end,j2l1j2j1end,j2l2start}</text>
</g>
<!-- {end,j1end,j1sj1start,j1sj2start,j1sstart,j1start,j2l1end,j2l1j1end,j2l1j1start,j2l1j2j1start,j2l1j2j2j1start,j2l1j2j2j2start,j2l1j2j2start,j2l1j2start,j2l1start,j2l2start,j2start,start}&#45;&gt;{end,j1end,j1send,j1sj1start,j1sj2end,j1sj2start,j1sstart,j1start,j2l1end,j2l1j2end,j2l1j2j1end,j2l2start} -->
<g id="edge5" class="edge">
<title>{end,j1end,j1sj1start,j1sj2start,j1sstart,j1start,j2l1end,j2l1j1end,j2l1j1start,j2l1j2j1start,j2l1j2j2j1start,j2l1j2j2j2start,j2l1j2j2start,j2l1j2start,j2l1start,j2l2start,j2start,start}&#45;&gt;{end,j1end,j1send,j1sj1start,j1sj2end,j1sj2start,j1sstart,j1start,j2l1end,j2l1j2end,j2l1j2j1end,j2l2start}</title>
<path fill="none" stroke="black" d="M1526.43,-1287.48C1623.39,-1192.87 1723.34,-1096.52 1818.65,-1006.61 1877.25,-951.32 1939.98,-893.4 2001.52,-837.28"/>
<polygon fill="black" stroke="black" points="2003.98,-839.77 2009.01,-830.45 1999.27,-834.6 2003.98,-839.77"/>
<text text-anchor="middle" x="1793.65" y="-1033.41" font-family="Times,serif" font-size="14.00">y</text>
</g>
<!-- start -->
<g id="node2" class="node">
<title>start</title>
<ellipse fill="none" stroke="black" cx="33.15" cy="-1874.61" rx="33.29" ry="18"/>
<text text-anchor="middle" x="33.15" y="-1870.91" font-family="Times,serif" font-size="14.00">start</text>
</g>
<!-- start&#45;&gt;{end,j1end,j1sj1start,j1sj2start,j1sstart,j1start,j2l1end,j2l1j1end,j2l1j1start,j2l1j2j1start,j2l1j2j2j1start,j2l1j2j2j2start,j2l1j2j2start,j2l1j2start,j2l1start,j2l2start,j2start,start} -->
<g id="edge1" class="edge">
<title>start&#45;&gt;{end,j1end,j1sj1start,j1sj2start,j1sstart,j1start,j2l1end,j2l1j1end,j2l1j1start,j2l1j2j1start,j2l1j2j2j1start,j2l1j2j2j2start,j2l1j2j2start,j2l1j2start,j2l1start,j2l2start,j2start,start}</title>
<path fill="none" stroke="black" d="M66.47,-1874.61C74.08,-1874.61 82.9,-1874.61 92.82,-1874.61"/>
<polygon fill="black" stroke="black" points="93.09,-1878.11 103.09,-1874.61 93.09,-1871.11 93.09,-1878.11"/>
</g>
<!-- {j2l1end,j2l1j2end,j2l1j2j2end,j2l1j2j2j2end,j2l2start}&#45;&gt;{end,j2end,j2l2end} -->
<g id="edge8" class="edge">
<title>{j2l1end,j2l1j2end,j2l1j2j2end,j2l1j2j2j2end,j2l2start}&#45;&gt;{end,j2end,j2l2end}</title>
<path fill="none" stroke="black" d="M3552.25,-2102.76C3584.03,-2088.32 3616.27,-2073.94 3647.09,-2060.61 3725.64,-2026.64 3815.25,-1990.68 3883.9,-1963.71"/>
<polygon fill="black" stroke="black" points="3885.41,-1966.87 3893.44,-1959.96 3882.86,-1960.36 3885.41,-1966.87"/>
<text text-anchor="middle" x="3654.09" y="-2064.41" font-family="Times,serif" font-size="14.00">s</text>
</g>
<!-- {} -->
<g id="node7" class="node">
<title>{}</title>
<ellipse fill="none" stroke="black" cx="4386.38" cy="-1815.61" rx="23" ry="23"/>
<text text-anchor="middle" x="4386.38" y="-1811.91" font-family="Times,serif" font-size="14.00">{}</text>
</g>
<!-- {j2l1end,j2l1j2end,j2l1j2j2end,j2l1j2j2j2end,j2l2start}&#45;&gt;{} -->
<g id="edge6" class="edge">
<title>{j2l1end,j2l1j2end,j2l1j2j2end,j2l1j2j2j2end,j2l2start}&#45;&gt;{}</title>
<path fill="none" stroke="black" d="M3566.4,-2289.95C3803.59,-2342.17 4149.83,-2370.86 4345.64,-2166.61 4367.44,-2143.86 4379.85,-1931.47 4383.9,-1848.55"/>
<polygon fill="black" stroke="black" points="4387.4,-1848.57 4384.38,-1838.42 4380.41,-1848.24 4387.4,-1848.57"/>
<text text-anchor="middle" x="3996.36" y="-2331.41" font-family="Times,serif" font-size="14.00">i</text>
</g>
<!-- {j2l1end,j2l1j2end,j2l1j2j2end,j2l1j2j2j2end,j2l2start}&#45;&gt;{} -->
<g id="edge7" class="edge">
<title>{j2l1end,j2l1j2end,j2l1j2j2end,j2l1j2j2j2end,j2l2start}&#45;&gt;{}</title>
<path fill="none" stroke="black" d="M3575.9,-2189.11C3879.66,-2158.21 4338.88,-2110.49 4345.64,-2103.61 4380.47,-2068.15 4385.23,-1916.77 4385.58,-1848.83"/>
<polygon fill="black" stroke="black" points="4389.08,-1848.69 4385.6,-1838.68 4382.08,-1848.67 4389.08,-1848.69"/>
<text text-anchor="middle" x="3996.36" y="-2180.41" font-family="Times,serif" font-size="14.00">m</text>
</g>
<!-- {j2l1end,j2l1j2end,j2l1j2j2end,j2l1j2j2j2end,j2l2start}&#45;&gt;{} -->
<g id="edge9" class="edge">
<title>{j2l1end,j2l1j2end,j2l1j2j2end,j2l1j2j2j2end,j2l2start}&#45;&gt;{}</title>
<path fill="none" stroke="black" d="M3560.24,-2121.92C3599.56,-2109.73 3640.11,-2098.69 3679.09,-2090.61 3817.61,-2061.87 4202.8,-2127.51 4313.64,-2039.61 4372.06,-1993.27 4383.64,-1899.07 4385.48,-1848.86"/>
<polygon fill="black" stroke="black" points="4388.99,-1848.64 4385.74,-1838.56 4381.99,-1848.46 4388.99,-1848.64"/>
<text text-anchor="middle" x="3996.36" y="-2094.41" font-family="Times,serif" font-size="14.00">y</text>
</g>
<!-- {end,j1end,j1send,j1sj1end,j1sj1start,j1sj2start,j1sstart,j1start,j2l1end,j2l1j2end,j2l1j2j2end,j2l1j2j2j1end,j2l2start}&#45;&gt;{end,j2end,j2l2end} -->
<g id="edge12" class="edge">
<title>{end,j1end,j1send,j1sj1end,j1sj1start,j1sj2start,j1sstart,j1start,j2l1end,j2l1j2end,j2l1j2j2end,j2l1j2j2j1end,j2l2start}&#45;&gt;{end,j2end,j2l2end}</title>
<path fill="none" stroke="black" d="M2890.79,-1819.16C2914.84,-1827.62 2938.84,-1835.5 2962.55,-1842.61 3247.16,-1927.87 3332.78,-1871.94 3629.09,-1893.61 3711.52,-1899.63 3804.38,-1906.48 3875.98,-1911.77"/>
<polygon fill="black" stroke="black" points="3876.15,-1915.29 3886.38,-1912.54 3876.67,-1908.31 3876.15,-1915.29"/>
<text text-anchor="middle" x="3311.82" y="-1897.41" font-family="Times,serif" font-size="14.00">s</text>
</g>
<!-- {end,j1end,j1send,j1sj1end,j1sj1start,j1sj2start,j1sstart,j1start,j2l1end,j2l1j2end,j2l1j2j2end,j2l1j2j2j1end,j2l2start}&#45;&gt;{} -->
<g id="edge10" class="edge">
<title>{end,j1end,j1send,j1sj1end,j1sj1start,j1sj2start,j1sstart,j1start,j2l1end,j2l1j2end,j2l1j2j2end,j2l1j2j2j1end,j2l2start}&#45;&gt;{}</title>
<path fill="none" stroke="black" d="M2937.77,-1668.02C3166.8,-1702.24 3435.21,-1738.95 3679.09,-1763.61 3960.18,-1792.03 4033.36,-1766.03 4313.64,-1801.61 4327.01,-1803.3 4341.65,-1806 4354.19,-1808.58"/>
<polygon fill="black" stroke="black" points="4353.65,-1812.05 4364.16,-1810.69 4355.1,-1805.2 4353.65,-1812.05"/>
<text text-anchor="middle" x="3654.09" y="-1765.41" font-family="Times,serif" font-size="14.00">i</text>
</g>
<!-- {end,j1end,j1send,j1sj1end,j1sj1start,j1sj2start,j1sstart,j1start} -->
<g id="node8" class="node">
<title>{end,j1end,j1send,j1sj1end,j1sj1start,j1sj2start,j1sstart,j1start}</title>
<ellipse fill="none" stroke="black" cx="3311.82" cy="-1036.61" rx="313.05" ry="313.05"/>
<ellipse fill="none" stroke="black" cx="3311.82" cy="-1036.61" rx="317.04" ry="317.04"/>
<text text-anchor="middle" x="3311.82" y="-1032.91" font-family="Times,serif" font-size="14.00">{end,j1end,j1send,j1sj1end,j1sj1start,j1sj2start,j1sstart,j1start}</text>
</g>
<!-- {end,j1end,j1send,j1sj1end,j1sj1start,j1sj2start,j1sstart,j1start,j2l1end,j2l1j2end,j2l1j2j2end,j2l1j2j2j1end,j2l2start}&#45;&gt;{end,j1end,j1send,j1sj1end,j1sj1start,j1sj2start,j1sstart,j1start} -->
<g id="edge11" class="edge">
<title>{end,j1end,j1send,j1sj1end,j1sj1start,j1sj2start,j1sstart,j1start,j2l1end,j2l1j2end,j2l1j2j2end,j2l1j2j2j1end,j2l2start}&#45;&gt;{end,j1end,j1send,j1sj1end,j1sj1start,j1sj2start,j1sstart,j1start}</title>
<path fill="none" stroke="black" d="M2868.12,-1295.11C2923.09,-1263.01 2977.66,-1231.14 3028.73,-1201.32"/>
<polygon fill="black" stroke="black" points="3030.69,-1204.23 3037.56,-1196.17 3027.16,-1198.19 3030.69,-1204.23"/>
<text text-anchor="middle" x="2969.55" y="-1239.41" font-family="Times,serif" font-size="14.00">m</text>
</g>
<!-- {end,j1end,j1send,j1sj1start,j1sj2end,j1sj2start,j1sstart,j1start} -->
<g id="node9" class="node">
<title>{end,j1end,j1send,j1sj1start,j1sj2end,j1sj2start,j1sstart,j1start}</title>
<ellipse fill="none" stroke="black" cx="3996.36" cy="-1404.61" rx="313.05" ry="313.05"/>
<ellipse fill="none" stroke="black" cx="3996.36" cy="-1404.61" rx="317.04" ry="317.04"/>
<text text-anchor="middle" x="3996.36" y="-1400.91" font-family="Times,serif" font-size="14.00">{end,j1end,j1send,j1sj1start,j1sj2end,j1sj2start,j1sstart,j1start}</text>
</g>
<!-- {end,j1end,j1send,j1sj1end,j1sj1start,j1sj2start,j1sstart,j1start,j2l1end,j2l1j2end,j2l1j2j2end,j2l1j2j2j1end,j2l2start}&#45;&gt;{end,j1end,j1send,j1sj1start,j1sj2end,j1sj2start,j1sstart,j1start} -->
<g id="edge13" class="edge">
<title>{end,j1end,j1send,j1sj1end,j1sj1start,j1sj2start,j1sstart,j1start,j2l1end,j2l1j2end,j2l1j2j2end,j2l1j2j2j1end,j2l2start}&#45;&gt;{end,j1end,j1send,j1sj1start,j1sj2end,j1sj2start,j1sstart,j1start}</title>
<path fill="none" stroke="black" d="M2941.57,-1518.3C3184.98,-1492.04 3461.69,-1462.18 3670.46,-1439.66"/>
<polygon fill="black" stroke="black" points="3671.1,-1443.11 3680.66,-1438.56 3670.35,-1436.15 3671.1,-1443.11"/>
<text text-anchor="middle" x="3311.82" y="-1516.41" font-family="Times,serif" font-size="14.00">y</text>
</g>
<!-- {end,j2end,j2l2end}&#45;&gt;{} -->
<g id="edge14" class="edge">
<title>{end,j2end,j2l2end}&#45;&gt;{}</title>
<path fill="none" stroke="black" d="M4099.08,-1880.71C4164.4,-1857.16 4251.69,-1829.52 4331.64,-1816.61 4338.63,-1815.48 4346.21,-1814.93 4353.4,-1814.72"/>
<polygon fill="black" stroke="black" points="4353.59,-1818.22 4363.55,-1814.62 4353.52,-1811.22 4353.59,-1818.22"/>
<text text-anchor="middle" x="4338.64" y="-1820.41" font-family="Times,serif" font-size="14.00">i</text>
</g>
<!-- {end,j2end,j2l2end}&#45;&gt;{} -->
<g id="edge15" class="edge">
<title>{end,j2end,j2l2end}&#45;&gt;{}</title>
<path fill="none" stroke="black" d="M4104.02,-1944.49C4178.13,-1954.85 4275.73,-1955.45 4345.64,-1907.61 4365.29,-1894.16 4375.29,-1868.79 4380.34,-1848.09"/>
<polygon fill="black" stroke="black" points="4383.81,-1848.6 4382.5,-1838.08 4376.97,-1847.12 4383.81,-1848.6"/>
<text text-anchor="middle" x="4338.64" y="-1917.41" font-family="Times,serif" font-size="14.00">m</text>
</g>
<!-- {end,j2end,j2l2end}&#45;&gt;{} -->
<g id="edge16" class="edge">
<title>{end,j2end,j2l2end}&#45;&gt;{}</title>
<path fill="none" stroke="black" d="M4106.24,-1925.74C4178.82,-1924.33 4273.74,-1912.79 4345.64,-1869.61 4355.72,-1863.55 4364.04,-1853.86 4370.41,-1844.35"/>
<polygon fill="black" stroke="black" points="4373.43,-1846.12 4375.71,-1835.77 4367.48,-1842.44 4373.43,-1846.12"/>
<text text-anchor="middle" x="4338.64" y="-1878.41" font-family="Times,serif" font-size="14.00">s</text>
</g>
<!-- {end,j2end,j2l2end}&#45;&gt;{} -->
<g id="edge17" class="edge">
<title>{end,j2end,j2l2end}&#45;&gt;{}</title>
<path fill="none" stroke="black" d="M4103.96,-1897.23C4173.44,-1881.05 4265.72,-1857.77 4345.64,-1831.61 4348.82,-1830.56 4352.11,-1829.39 4355.37,-1828.17"/>
<polygon fill="black" stroke="black" points="4356.9,-1831.33 4364.95,-1824.44 4354.36,-1824.81 4356.9,-1831.33"/>
<text text-anchor="middle" x="4338.64" y="-1838.41" font-family="Times,serif" font-size="14.00">y</text>
</g>
<!-- {end,j1end,j1send,j1sj1start,j1sj2end,j1sj2start,j1sstart,j1start,j2l1end,j2l1j2end,j2l1j2j1end,j2l2start}&#45;&gt;{end,j2end,j2l2end} -->
<g id="edge20" class="edge">
<title>{end,j1end,j1send,j1sj1start,j1sj2end,j1sj2start,j1sstart,j1start,j2l1end,j2l1j2end,j2l1j2j1end,j2l2start}&#45;&gt;{end,j2end,j2l2end}</title>
<path fill="none" stroke="black" d="M2786.69,-789.57C2849.8,-853.75 2906.6,-926.72 2944.55,-1006.61 2961.31,-1041.88 2958.01,-1318.82 2962.55,-1357.61 2971.69,-1435.7 2945.09,-1470.47 2994.55,-1531.61 3110.19,-1674.56 3641.87,-1828.18 3879.75,-1891.15"/>
<polygon fill="black" stroke="black" points="3878.91,-1894.54 3889.48,-1893.71 3880.7,-1887.78 3878.91,-1894.54"/>
<text text-anchor="middle" x="3311.82" y="-1823.41" font-family="Times,serif" font-size="14.00">s</text>
</g>
<!-- {end,j1end,j1send,j1sj1start,j1sj2end,j1sj2start,j1sstart,j1start,j2l1end,j2l1j2end,j2l1j2j1end,j2l2start}&#45;&gt;{} -->
<g id="edge18" class="edge">
<title>{end,j1end,j1send,j1sj1start,j1sj2end,j1sj2start,j1sstart,j1start,j2l1end,j2l1j2end,j2l1j2j1end,j2l2start}&#45;&gt;{}</title>
<path fill="none" stroke="black" d="M2877.4,-445.38C3316.74,-427.67 3944.67,-479.88 4313.64,-856.61 4379.73,-924.09 4385.04,-1621.66 4385.38,-1782.6"/>
<polygon fill="black" stroke="black" points="4381.88,-1782.84 4385.4,-1792.83 4388.88,-1782.83 4381.88,-1782.84"/>
<text text-anchor="middle" x="3654.09" y="-515.41" font-family="Times,serif" font-size="14.00">i</text>
</g>
<!-- {end,j1end,j1send,j1sj1start,j1sj2end,j1sj2start,j1sstart,j1start,j2l1end,j2l1j2end,j2l1j2j1end,j2l2start}&#45;&gt;{end,j1end,j1send,j1sj1end,j1sj1start,j1sj2start,j1sstart,j1start} -->
<g id="edge19" class="edge">
<title>{end,j1end,j1send,j1sj1start,j1sj2end,j1sj2start,j1sstart,j1start,j2l1end,j2l1j2end,j2l1j2j1end,j2l2start}&#45;&gt;{end,j1end,j1send,j1sj1end,j1sj1start,j1sj2start,j1sstart,j1start}</title>
<path fill="none" stroke="black" d="M2813.42,-748.31C2886.35,-790.58 2960.39,-833.49 3028.27,-872.84"/>
<polygon fill="black" stroke="black" points="3026.54,-875.88 3036.94,-877.87 3030.05,-869.82 3026.54,-875.88"/>
<text text-anchor="middle" x="2969.55" y="-843.41" font-family="Times,serif" font-size="14.00">m</text>
</g>
<!-- {end,j1end,j1send,j1sj1start,j1sj2end,j1sj2start,j1sstart,j1start,j2l1end,j2l1j2end,j2l1j2j1end,j2l2start}&#45;&gt;{end,j1end,j1send,j1sj1start,j1sj2end,j1sj2start,j1sstart,j1start} -->
<g id="edge21" class="edge">
<title>{end,j1end,j1send,j1sj1start,j1sj2end,j1sj2start,j1sstart,j1start,j2l1end,j2l1j2end,j2l1j2j1end,j2l2start}&#45;&gt;{end,j1end,j1send,j1sj1start,j1sj2end,j1sj2start,j1sstart,j1start}</title>
<path fill="none" stroke="black" d="M2786.02,-790.95C2848.98,-854.89 2905.89,-927.42 2944.55,-1006.61 2982.78,-1084.93 2926.69,-1340.92 2994.55,-1395.61 3020.93,-1416.87 3386.85,-1415.56 3668.66,-1411.29"/>
<polygon fill="black" stroke="black" points="3669.13,-1414.78 3679.07,-1411.13 3669.02,-1407.79 3669.13,-1414.78"/>
<text text-anchor="middle" x="3311.82" y="-1418.41" font-family="Times,serif" font-size="14.00">y</text>
</g>
<!-- {}&#45;&gt;{} -->
<g id="edge22" class="edge">
<title>{}&#45;&gt;{}</title>
<path fill="none" stroke="black" d="M4384.25,-1838.65C4384.1,-1848.23 4384.81,-1856.35 4386.38,-1856.35 4387.34,-1856.35 4387.98,-1853.34 4388.3,-1848.81"/>
<polygon fill="black" stroke="black" points="4391.8,-1848.72 4388.52,-1838.65 4384.81,-1848.57 4391.8,-1848.72"/>
<text text-anchor="middle" x="4386.38" y="-1860.15" font-family="Times,serif" font-size="14.00">i</text>
</g>
<!-- {}&#45;&gt;{} -->
<g id="edge23" class="edge">
<title>{}&#45;&gt;{}</title>
<path fill="none" stroke="black" d="M4382.65,-1838.21C4381.21,-1856.05 4382.45,-1874.35 4386.38,-1874.35 4389.55,-1874.35 4390.97,-1862.5 4390.65,-1848.58"/>
<polygon fill="black" stroke="black" points="4394.13,-1848.02 4390.12,-1838.21 4387.14,-1848.38 4394.13,-1848.02"/>
<text text-anchor="middle" x="4386.38" y="-1878.15" font-family="Times,serif" font-size="14.00">m</text>
</g>
<!-- {}&#45;&gt;{} -->
<g id="edge24" class="edge">
<title>{}&#45;&gt;{}</title>
<path fill="none" stroke="black" d="M4381.58,-1838C4378.28,-1863.27 4379.88,-1892.35 4386.38,-1892.35 4392.02,-1892.35 4393.98,-1870.48 4392.24,-1848.19"/>
<polygon fill="black" stroke="black" points="4395.7,-1847.58 4391.19,-1838 4388.73,-1848.3 4395.7,-1847.58"/>
<text text-anchor="middle" x="4386.38" y="-1896.15" font-family="Times,serif" font-size="14.00">s</text>
</g>
<!-- {}&#45;&gt;{} -->
<g id="edge25" class="edge">
<title>{}&#45;&gt;{}</title>
<path fill="none" stroke="black" d="M4380.8,-1837.97C4375.36,-1870.24 4377.22,-1910.35 4386.38,-1910.35 4394.62,-1910.35 4396.96,-1877.98 4393.4,-1847.99"/>
<polygon fill="black" stroke="black" points="4396.85,-1847.37 4391.97,-1837.97 4389.92,-1848.36 4396.85,-1847.37"/>
<text text-anchor="middle" x="4386.38" y="-1914.15" font-family="Times,serif" font-size="14.00">y</text>
</g>
<!-- {end,j1end,j1send,j1sj1end,j1sj1start,j1sj2start,j1sstart,j1start}&#45;&gt;{} -->
<g id="edge26" class="edge">
<title>{end,j1end,j1send,j1sj1end,j1sj1start,j1sj2start,j1sstart,j1start}&#45;&gt;{}</title>
<path fill="none" stroke="black" d="M3608.27,-923.4C3863.96,-846.34 4212.91,-797.31 4345.64,-1040.61 4381.52,-1106.38 4385.05,-1643.04 4385.36,-1782.56"/>
<polygon fill="black" stroke="black" points="4381.86,-1782.65 4385.38,-1792.64 4388.86,-1782.63 4381.86,-1782.65"/>
<text text-anchor="middle" x="3996.36" y="-995.41" font-family="Times,serif" font-size="14.00">i</text>
</g>
<!-- {end,j1end,j1send,j1sj1end,j1sj1start,j1sj2start,j1sstart,j1start}&#45;&gt;{} -->
<g id="edge28" class="edge">
<title>{end,j1end,j1send,j1sj1end,j1sj1start,j1sj2start,j1sstart,j1start}&#45;&gt;{}</title>
<path fill="none" stroke="black" d="M3628.97,-1024.57C3903.29,-1017.43 4264.1,-1017.33 4313.64,-1063.61 4366.88,-1113.34 4381.75,-1643.42 4384.75,-1782.4"/>
<polygon fill="black" stroke="black" points="4381.26,-1782.89 4384.97,-1792.81 4388.26,-1782.74 4381.26,-1782.89"/>
<text text-anchor="middle" x="3996.36" y="-1067.41" font-family="Times,serif" font-size="14.00">s</text>
</g>
<!-- {end,j1end,j1send,j1sj1end,j1sj1start,j1sj2start,j1sstart,j1start}&#45;&gt;{end,j1end,j1send,j1sj1end,j1sj1start,j1sj2start,j1sstart,j1start} -->
<g id="edge27" class="edge">
<title>{end,j1end,j1send,j1sj1end,j1sj1start,j1sj2start,j1sstart,j1start}&#45;&gt;{end,j1end,j1send,j1sj1end,j1sj1start,j1sj2start,j1sstart,j1start}</title>
<path fill="none" stroke="black" d="M3273.69,-1351.76C3283.58,-1364.5 3296.29,-1371.88 3311.82,-1371.88 3323.95,-1371.88 3334.36,-1367.38 3343.05,-1359.33"/>
<polygon fill="black" stroke="black" points="3345.8,-1361.51 3349.95,-1351.76 3340.63,-1356.8 3345.8,-1361.51"/>
<text text-anchor="middle" x="3311.82" y="-1375.68" font-family="Times,serif" font-size="14.00">m</text>
</g>
<!-- {end,j1end,j1send,j1sj1end,j1sj1start,j1sj2start,j1sstart,j1start}&#45;&gt;{end,j1end,j1send,j1sj1start,j1sj2end,j1sj2start,j1sstart,j1start} -->
<g id="edge29" class="edge">
<title>{end,j1end,j1send,j1sj1end,j1sj1start,j1sj2start,j1sstart,j1start}&#45;&gt;{end,j1end,j1send,j1sj1start,j1sj2end,j1sj2start,j1sstart,j1start}</title>
<path fill="none" stroke="black" d="M3591.42,-1186.82C3629.73,-1207.47 3669.12,-1228.71 3707.59,-1249.45"/>
<polygon fill="black" stroke="black" points="3706.36,-1252.76 3716.82,-1254.43 3709.68,-1246.6 3706.36,-1252.76"/>
<text text-anchor="middle" x="3654.09" y="-1224.41" font-family="Times,serif" font-size="14.00">y</text>
</g>
<!-- {end,j1end,j1send,j1sj1start,j1sj2end,j1sj2start,j1sstart,j1start}&#45;&gt;{} -->
<g id="edge30" class="edge">
<title>{end,j1end,j1send,j1sj1start,j1sj2end,j1sj2start,j1sstart,j1start}&#45;&gt;{}</title>
<path fill="none" stroke="black" d="M4228.25,-1621.79C4269.02,-1664.04 4309.83,-1709.08 4345.64,-1753.61 4354.09,-1764.12 4362.32,-1776.49 4369.08,-1787.41"/>
<polygon fill="black" stroke="black" points="4366.21,-1789.42 4374.39,-1796.16 4372.2,-1785.8 4366.21,-1789.42"/>
<text text-anchor="middle" x="4338.64" y="-1757.41" font-family="Times,serif" font-size="14.00">i</text>
</g>
<!-- {end,j1end,j1send,j1sj1start,j1sj2end,j1sj2start,j1sstart,j1start}&#45;&gt;{} -->
<g id="edge32" class="edge">
<title>{end,j1end,j1send,j1sj1start,j1sj2end,j1sj2start,j1sstart,j1start}&#45;&gt;{}</title>
<path fill="none" stroke="black" d="M4242.41,-1605.1C4279.82,-1642.38 4315.83,-1682.83 4345.64,-1724.61 4358.65,-1742.84 4368.69,-1766.01 4375.43,-1784.4"/>
<polygon fill="black" stroke="black" points="4372.21,-1785.8 4378.83,-1794.07 4378.81,-1783.48 4372.21,-1785.8"/>
<text text-anchor="middle" x="4338.64" y="-1728.41" font-family="Times,serif" font-size="14.00">s</text>
</g>
<!-- {end,j1end,j1send,j1sj1start,j1sj2end,j1sj2start,j1sstart,j1start}&#45;&gt;{end,j1end,j1send,j1sj1end,j1sj1start,j1sj2start,j1sstart,j1start} -->
<g id="edge31" class="edge">
<title>{end,j1end,j1send,j1sj1start,j1sj2end,j1sj2start,j1sstart,j1start}&#45;&gt;{end,j1end,j1send,j1sj1end,j1sj1start,j1sj2start,j1sstart,j1start}</title>
<path fill="none" stroke="black" d="M3726.28,-1237.94C3704.38,-1225.37 3682.46,-1213.12 3661.09,-1201.61 3644.29,-1192.55 3626.91,-1183.47 3609.28,-1174.48"/>
<polygon fill="black" stroke="black" points="3610.54,-1171.19 3600.04,-1169.78 3607.37,-1177.43 3610.54,-1171.19"/>
<text text-anchor="middle" x="3654.09" y="-1205.41" font-family="Times,serif" font-size="14.00">m</text>
</g>
<!-- {end,j1end,j1send,j1sj1start,j1sj2end,j1sj2start,j1sstart,j1start}&#45;&gt;{end,j1end,j1send,j1sj1start,j1sj2end,j1sj2start,j1sstart,j1start} -->
<g id="edge33" class="edge">
<title>{end,j1end,j1send,j1sj1start,j1sj2end,j1sj2start,j1sstart,j1start}&#45;&gt;{end,j1end,j1send,j1sj1start,j1sj2end,j1sj2start,j1sstart,j1start}</title>
<path fill="none" stroke="black" d="M3958.24,-1719.76C3968.12,-1732.5 3980.83,-1739.88 3996.36,-1739.88 4008.5,-1739.88 4018.91,-1735.38 4027.6,-1727.33"/>
<polygon fill="black" stroke="black" points="4030.35,-1729.51 4034.49,-1719.76 4025.17,-1724.8 4030.35,-1729.51"/>
<text text-anchor="middle" x="3996.36" y="-1743.68" font-family="Times,serif" font-size="14.00">y</text>
</g>
</g>
</svg>
