<?xml version="1.0" encoding="UTF-8" standalone="no"?>
<!DOCTYPE svg PUBLIC "-//W3C//DTD SVG 1.1//EN"
 "http://www.w3.org/Graphics/SVG/1.1/DTD/svg11.dtd">
<!-- Generated by graphviz version 2.43.0 (0)
 -->
<!-- Title: ENFA Pages: 1 -->
<svg width="2619pt" height="365pt"
 viewBox="0.00 0.00 2619.13 365.49" xmlns="http://www.w3.org/2000/svg" xmlns:xlink="http://www.w3.org/1999/xlink">
<g id="graph0" class="graph" transform="scale(1 1) rotate(0) translate(4 361.49)">
<title>ENFA</title>
<polygon fill="white" stroke="transparent" points="-4,4 -4,-361.49 2615.13,-361.49 2615.13,4 -4,4"/>
<!-- l1end -->
<g id="node1" class="node">
<title>l1end</title>
<ellipse fill="none" stroke="black" cx="2037.07" cy="-236.24" rx="36.29" ry="36.29"/>
<text text-anchor="middle" x="2037.07" y="-232.54" font-family="Times,serif" font-size="14.00">l1end</text>
</g>
<!-- l2start -->
<g id="node19" class="node">
<title>l2start</title>
<ellipse fill="none" stroke="black" cx="2160.71" cy="-236.24" rx="42.49" ry="42.49"/>
<text text-anchor="middle" x="2160.71" y="-232.54" font-family="Times,serif" font-size="14.00">l2start</text>
</g>
<!-- l1end&#45;&gt;l2start -->
<g id="edge3" class="edge">
<title>l1end&#45;&gt;l2start</title>
<path fill="none" stroke="black" d="M2073.58,-236.24C2084.42,-236.24 2096.58,-236.24 2108.26,-236.24"/>
<polygon fill="black" stroke="black" points="2108.36,-239.74 2118.36,-236.24 2108.36,-232.74 2108.36,-239.74"/>
<text text-anchor="middle" x="2095.96" y="-240.04" font-family="Times,serif" font-size="14.00">x</text>
</g>
<!-- l1l1start -->
<g id="node2" class="node">
<title>l1l1start</title>
<ellipse fill="none" stroke="black" cx="153.99" cy="-216.24" rx="50.89" ry="50.89"/>
<text text-anchor="middle" x="153.99" y="-212.54" font-family="Times,serif" font-size="14.00">l1l1start</text>
</g>
<!-- l1l1j1l1start -->
<g id="node6" class="node">
<title>l1l1j1l1start</title>
<ellipse fill="none" stroke="black" cx="317.93" cy="-289.24" rx="68.49" ry="68.49"/>
<text text-anchor="middle" x="317.93" y="-285.54" font-family="Times,serif" font-size="14.00">l1l1j1l1start</text>
</g>
<!-- l1l1start&#45;&gt;l1l1j1l1start -->
<g id="edge6" class="edge">
<title>l1l1start&#45;&gt;l1l1j1l1start</title>
<path fill="none" stroke="black" d="M200.53,-236.77C214.63,-243.13 230.51,-250.29 245.91,-257.23"/>
<polygon fill="black" stroke="black" points="244.86,-260.6 255.42,-261.51 247.74,-254.21 244.86,-260.6"/>
<text text-anchor="middle" x="227.19" y="-254.04" font-family="Times,serif" font-size="14.00">x</text>
</g>
<!-- l1l1j2start -->
<g id="node10" class="node">
<title>l1l1j2start</title>
<ellipse fill="none" stroke="black" cx="317.93" cy="-143.24" rx="59.59" ry="59.59"/>
<text text-anchor="middle" x="317.93" y="-139.54" font-family="Times,serif" font-size="14.00">l1l1j2start</text>
</g>
<!-- l1l1start&#45;&gt;l1l1j2start -->
<g id="edge7" class="edge">
<title>l1l1start&#45;&gt;l1l1j2start</title>
<path fill="none" stroke="black" d="M200.53,-195.72C217.1,-188.25 236.14,-179.66 253.95,-171.63"/>
<polygon fill="black" stroke="black" points="255.45,-174.8 263.13,-167.49 252.58,-168.41 255.45,-174.8"/>
<text text-anchor="middle" x="227.19" y="-188.04" font-family="Times,serif" font-size="14.00">x</text>
</g>
<!-- start -->
<g id="node3" class="node">
<title>start</title>
<ellipse fill="none" stroke="black" cx="33.15" cy="-216.24" rx="33.29" ry="18"/>
<text text-anchor="middle" x="33.15" y="-212.54" font-family="Times,serif" font-size="14.00">start</text>
</g>
<!-- start&#45;&gt;l1l1start -->
<g id="edge1" class="edge">
<title>start&#45;&gt;l1l1start</title>
<path fill="none" stroke="black" d="M66.31,-216.24C74.5,-216.24 83.57,-216.24 92.67,-216.24"/>
<polygon fill="black" stroke="black" points="92.92,-219.74 102.92,-216.24 92.92,-212.74 92.92,-219.74"/>
</g>
<!-- l1l1end -->
<g id="node4" class="node">
<title>l1l1end</title>
<ellipse fill="none" stroke="black" cx="1325.91" cy="-194.24" rx="45.49" ry="45.49"/>
<text text-anchor="middle" x="1325.91" y="-190.54" font-family="Times,serif" font-size="14.00">l1l1end</text>
</g>
<!-- l1l2start -->
<g id="node15" class="node">
<title>l1l2start</title>
<ellipse fill="none" stroke="black" cx="1467.1" cy="-194.24" rx="50.89" ry="50.89"/>
<text text-anchor="middle" x="1467.1" y="-190.54" font-family="Times,serif" font-size="14.00">l1l2start</text>
</g>
<!-- l1l1end&#45;&gt;l1l2start -->
<g id="edge5" class="edge">
<title>l1l1end&#45;&gt;l1l2start</title>
<path fill="none" stroke="black" d="M1371.72,-194.24C1382.66,-194.24 1394.54,-194.24 1406.06,-194.24"/>
<polygon fill="black" stroke="black" points="1406.07,-197.74 1416.07,-194.24 1406.07,-190.74 1406.07,-197.74"/>
<text text-anchor="middle" x="1393.9" y="-198.04" font-family="Times,serif" font-size="14.00">x</text>
</g>
<!-- l1l1j1end -->
<g id="node5" class="node">
<title>l1l1j1end</title>
<ellipse fill="none" stroke="black" cx="1181.47" cy="-277.24" rx="53.89" ry="53.89"/>
<text text-anchor="middle" x="1181.47" y="-273.54" font-family="Times,serif" font-size="14.00">l1l1j1end</text>
</g>
<!-- l1l1j1end&#45;&gt;l1l1end -->
<g id="edge4" class="edge">
<title>l1l1j1end&#45;&gt;l1l1end</title>
<path fill="none" stroke="black" d="M1228.71,-250.3C1244.2,-241.27 1261.48,-231.2 1277.08,-222.11"/>
<polygon fill="black" stroke="black" points="1279.17,-224.95 1286.05,-216.89 1275.65,-218.9 1279.17,-224.95"/>
<text text-anchor="middle" x="1257.91" y="-240.04" font-family="Times,serif" font-size="14.00">x</text>
</g>
<!-- l1l1j1l1end -->
<g id="node7" class="node">
<title>l1l1j1l1end</title>
<ellipse fill="none" stroke="black" cx="499.42" cy="-289.24" rx="63.09" ry="63.09"/>
<text text-anchor="middle" x="499.42" y="-285.54" font-family="Times,serif" font-size="14.00">l1l1j1l1end</text>
</g>
<!-- l1l1j1l1start&#45;&gt;l1l1j1l1end -->
<g id="edge10" class="edge">
<title>l1l1j1l1start&#45;&gt;l1l1j1l1end</title>
<path fill="none" stroke="black" d="M386.27,-289.24C399.23,-289.24 412.84,-289.24 425.95,-289.24"/>
<polygon fill="black" stroke="black" points="426.32,-292.74 436.32,-289.24 426.32,-285.74 426.32,-292.74"/>
<text text-anchor="middle" x="408.67" y="-293.04" font-family="Times,serif" font-size="14.00">k</text>
</g>
<!-- l1l1j1l2start -->
<g id="node8" class="node">
<title>l1l1j1l2start</title>
<ellipse fill="none" stroke="black" cx="842.19" cy="-289.24" rx="68.49" ry="68.49"/>
<text text-anchor="middle" x="842.19" y="-285.54" font-family="Times,serif" font-size="14.00">l1l1j1l2start</text>
</g>
<!-- l1l1j1l1end&#45;&gt;l1l1j1l2start -->
<g id="edge11" class="edge">
<title>l1l1j1l1end&#45;&gt;l1l1j1l2start</title>
<path fill="none" stroke="black" d="M562.52,-289.24C618.96,-289.24 702.47,-289.24 763.34,-289.24"/>
<polygon fill="black" stroke="black" points="763.67,-292.74 773.67,-289.24 763.67,-285.74 763.67,-292.74"/>
<text text-anchor="middle" x="670.8" y="-293.04" font-family="Times,serif" font-size="14.00">x</text>
</g>
<!-- l1l1j1l2end -->
<g id="node9" class="node">
<title>l1l1j1l2end</title>
<ellipse fill="none" stroke="black" cx="1019.48" cy="-289.24" rx="63.09" ry="63.09"/>
<text text-anchor="middle" x="1019.48" y="-285.54" font-family="Times,serif" font-size="14.00">l1l1j1l2end</text>
</g>
<!-- l1l1j1l2start&#45;&gt;l1l1j1l2end -->
<g id="edge12" class="edge">
<title>l1l1j1l2start&#45;&gt;l1l1j1l2end</title>
<path fill="none" stroke="black" d="M910.46,-289.24C922.11,-289.24 934.27,-289.24 946.05,-289.24"/>
<polygon fill="black" stroke="black" points="946.28,-292.74 956.28,-289.24 946.28,-285.74 946.28,-292.74"/>
<text text-anchor="middle" x="933.43" y="-293.04" font-family="Times,serif" font-size="14.00">d</text>
</g>
<!-- l1l1j1l2end&#45;&gt;l1l1j1end -->
<g id="edge9" class="edge">
<title>l1l1j1l2end&#45;&gt;l1l1j1end</title>
<path fill="none" stroke="black" d="M1082.79,-284.57C1094.14,-283.72 1106,-282.83 1117.37,-281.98"/>
<polygon fill="black" stroke="black" points="1117.95,-285.44 1127.66,-281.21 1117.42,-278.46 1117.95,-285.44"/>
<text text-anchor="middle" x="1105.02" y="-286.04" font-family="Times,serif" font-size="14.00">x</text>
</g>
<!-- l1l1j2j1startend -->
<g id="node12" class="node">
<title>l1l1j2j1startend</title>
<ellipse fill="none" stroke="black" cx="670.8" cy="-169.24" rx="85.29" ry="85.29"/>
<text text-anchor="middle" x="670.8" y="-165.54" font-family="Times,serif" font-size="14.00">l1l1j2j1startend</text>
</g>
<!-- l1l1j2start&#45;&gt;l1l1j2j1startend -->
<g id="edge13" class="edge">
<title>l1l1j2start&#45;&gt;l1l1j2j1startend</title>
<path fill="none" stroke="black" d="M377.66,-147.6C431.53,-151.59 512.26,-157.57 575.22,-162.24"/>
<polygon fill="black" stroke="black" points="575.33,-165.75 585.56,-163 575.85,-158.77 575.33,-165.75"/>
<text text-anchor="middle" x="408.67" y="-154.04" font-family="Times,serif" font-size="14.00">x</text>
</g>
<!-- l1l1j2j2start -->
<g id="node13" class="node">
<title>l1l1j2j2start</title>
<ellipse fill="none" stroke="black" cx="499.42" cy="-68.24" rx="68.49" ry="68.49"/>
<text text-anchor="middle" x="499.42" y="-64.54" font-family="Times,serif" font-size="14.00">l1l1j2j2start</text>
</g>
<!-- l1l1j2start&#45;&gt;l1l1j2j2start -->
<g id="edge15" class="edge">
<title>l1l1j2start&#45;&gt;l1l1j2j2start</title>
<path fill="none" stroke="black" d="M373.27,-120.54C390.14,-113.49 409,-105.61 426.85,-98.15"/>
<polygon fill="black" stroke="black" points="428.2,-101.38 436.08,-94.29 425.51,-94.92 428.2,-101.38"/>
<text text-anchor="middle" x="408.67" y="-110.04" font-family="Times,serif" font-size="14.00">x</text>
</g>
<!-- l1l1j2end -->
<g id="node11" class="node">
<title>l1l1j2end</title>
<ellipse fill="none" stroke="black" cx="1019.48" cy="-154.24" rx="53.89" ry="53.89"/>
<text text-anchor="middle" x="1019.48" y="-150.54" font-family="Times,serif" font-size="14.00">l1l1j2end</text>
</g>
<!-- l1l1j2end&#45;&gt;l1l1end -->
<g id="edge8" class="edge">
<title>l1l1j2end&#45;&gt;l1l1end</title>
<path fill="none" stroke="black" d="M1073.16,-161.17C1128.43,-168.43 1214.88,-179.79 1270.72,-187.12"/>
<polygon fill="black" stroke="black" points="1270.4,-190.61 1280.77,-188.44 1271.31,-183.67 1270.4,-190.61"/>
<text text-anchor="middle" x="1181.47" y="-186.04" font-family="Times,serif" font-size="14.00">x</text>
</g>
<!-- l1l1j2j1startend&#45;&gt;l1l1j2end -->
<g id="edge14" class="edge">
<title>l1l1j2j1startend&#45;&gt;l1l1j2end</title>
<path fill="none" stroke="black" d="M756.17,-165.59C817.58,-162.94 899.44,-159.39 955.28,-156.98"/>
<polygon fill="black" stroke="black" points="955.55,-160.47 965.39,-156.54 955.25,-153.48 955.55,-160.47"/>
<text text-anchor="middle" x="842.19" y="-169.04" font-family="Times,serif" font-size="14.00">x</text>
</g>
<!-- l1l1j2j2end -->
<g id="node14" class="node">
<title>l1l1j2j2end</title>
<ellipse fill="none" stroke="black" cx="842.19" cy="-66.24" rx="63.09" ry="63.09"/>
<text text-anchor="middle" x="842.19" y="-62.54" font-family="Times,serif" font-size="14.00">l1l1j2j2end</text>
</g>
<!-- l1l1j2j2start&#45;&gt;l1l1j2j2end -->
<g id="edge17" class="edge">
<title>l1l1j2j2start&#45;&gt;l1l1j2j2end</title>
<path fill="none" stroke="black" d="M567.38,-61.36C573.56,-60.91 579.72,-60.52 585.66,-60.24 661.26,-56.7 680.31,-57.59 755.95,-60.24 760.2,-60.39 764.57,-60.58 768.98,-60.81"/>
<polygon fill="black" stroke="black" points="769.12,-64.32 779.29,-61.37 769.5,-57.33 769.12,-64.32"/>
<text text-anchor="middle" x="670.8" y="-64.04" font-family="Times,serif" font-size="14.00">k</text>
</g>
<!-- l1l1j2j2end&#45;&gt;l1l1j2end -->
<g id="edge16" class="edge">
<title>l1l1j2j2end&#45;&gt;l1l1j2end</title>
<path fill="none" stroke="black" d="M899.13,-94.33C919.2,-104.41 941.84,-115.77 961.96,-125.87"/>
<polygon fill="black" stroke="black" points="960.5,-129.05 971.01,-130.41 963.64,-122.8 960.5,-129.05"/>
<text text-anchor="middle" x="933.43" y="-117.04" font-family="Times,serif" font-size="14.00">x</text>
</g>
<!-- l1l2end -->
<g id="node16" class="node">
<title>l1l2end</title>
<ellipse fill="none" stroke="black" cx="1910.17" cy="-236.24" rx="45.49" ry="45.49"/>
<text text-anchor="middle" x="1910.17" y="-232.54" font-family="Times,serif" font-size="14.00">l1l2end</text>
</g>
<!-- l1l2start&#45;&gt;l1l2end -->
<g id="edge18" class="edge">
<title>l1l2start&#45;&gt;l1l2end</title>
<path fill="none" stroke="black" d="M1505.38,-227.56C1521.79,-240.07 1542.04,-252.8 1562.8,-259.24 1663.06,-290.34 1787.24,-268.47 1856.37,-251.32"/>
<polygon fill="black" stroke="black" points="1857.33,-254.69 1866.16,-248.83 1855.61,-247.9 1857.33,-254.69"/>
<text text-anchor="middle" x="1697.09" y="-278.04" font-family="Times,serif" font-size="14.00">x</text>
</g>
<!-- l1l2sstart -->
<g id="node17" class="node">
<title>l1l2sstart</title>
<ellipse fill="none" stroke="black" cx="1618.69" cy="-194.24" rx="55.79" ry="55.79"/>
<text text-anchor="middle" x="1618.69" y="-190.54" font-family="Times,serif" font-size="14.00">l1l2sstart</text>
</g>
<!-- l1l2start&#45;&gt;l1l2sstart -->
<g id="edge19" class="edge">
<title>l1l2start&#45;&gt;l1l2sstart</title>
<path fill="none" stroke="black" d="M1517.91,-194.24C1529.02,-194.24 1540.96,-194.24 1552.58,-194.24"/>
<polygon fill="black" stroke="black" points="1552.69,-197.74 1562.69,-194.24 1552.69,-190.74 1552.69,-197.74"/>
<text text-anchor="middle" x="1540.3" y="-198.04" font-family="Times,serif" font-size="14.00">x</text>
</g>
<!-- l1l2end&#45;&gt;l1end -->
<g id="edge2" class="edge">
<title>l1l2end&#45;&gt;l1end</title>
<path fill="none" stroke="black" d="M1955.91,-236.24C1967.16,-236.24 1979.25,-236.24 1990.54,-236.24"/>
<polygon fill="black" stroke="black" points="1990.64,-239.74 2000.64,-236.24 1990.64,-232.74 1990.64,-239.74"/>
<text text-anchor="middle" x="1978.17" y="-240.04" font-family="Times,serif" font-size="14.00">x</text>
</g>
<!-- l1l2send -->
<g id="node18" class="node">
<title>l1l2send</title>
<ellipse fill="none" stroke="black" cx="1769.63" cy="-194.24" rx="50.09" ry="50.09"/>
<text text-anchor="middle" x="1769.63" y="-190.54" font-family="Times,serif" font-size="14.00">l1l2send</text>
</g>
<!-- l1l2sstart&#45;&gt;l1l2send -->
<g id="edge22" class="edge">
<title>l1l2sstart&#45;&gt;l1l2send</title>
<path fill="none" stroke="black" d="M1674.73,-194.24C1685.89,-194.24 1697.69,-194.24 1709,-194.24"/>
<polygon fill="black" stroke="black" points="1709.23,-197.74 1719.23,-194.24 1709.23,-190.74 1709.23,-197.74"/>
<text text-anchor="middle" x="1697.09" y="-198.04" font-family="Times,serif" font-size="14.00">i</text>
</g>
<!-- l1l2send&#45;&gt;l1l2start -->
<g id="edge21" class="edge">
<title>l1l2send&#45;&gt;l1l2start</title>
<path fill="none" stroke="black" d="M1736.38,-156.76C1719.79,-140.36 1698.12,-122.9 1674.59,-114.24 1627.96,-97.09 1609.46,-97.17 1562.8,-114.24 1542.65,-121.62 1523.83,-135.38 1508.37,-149.43"/>
<polygon fill="black" stroke="black" points="1505.93,-146.92 1501.05,-156.33 1510.73,-152.02 1505.93,-146.92"/>
<text text-anchor="middle" x="1618.69" y="-118.04" font-family="Times,serif" font-size="14.00">x</text>
</g>
<!-- l1l2send&#45;&gt;l1l2end -->
<g id="edge20" class="edge">
<title>l1l2send&#45;&gt;l1l2end</title>
<path fill="none" stroke="black" d="M1817.92,-208.58C1830.29,-212.33 1843.71,-216.4 1856.35,-220.23"/>
<polygon fill="black" stroke="black" points="1855.7,-223.69 1866.28,-223.24 1857.73,-216.99 1855.7,-223.69"/>
<text text-anchor="middle" x="1842.18" y="-221.04" font-family="Times,serif" font-size="14.00">x</text>
</g>
<!-- l2j1start -->
<g id="node21" class="node">
<title>l2j1start</title>
<ellipse fill="none" stroke="black" cx="2298.65" cy="-296.24" rx="50.89" ry="50.89"/>
<text text-anchor="middle" x="2298.65" y="-292.54" font-family="Times,serif" font-size="14.00">l2j1start</text>
</g>
<!-- l2start&#45;&gt;l2j1start -->
<g id="edge23" class="edge">
<title>l2start&#45;&gt;l2j1start</title>
<path fill="none" stroke="black" d="M2199.58,-252.96C2212.85,-258.82 2228.05,-265.52 2242.45,-271.88"/>
<polygon fill="black" stroke="black" points="2241.21,-275.16 2251.77,-275.99 2244.04,-268.75 2241.21,-275.16"/>
<text text-anchor="middle" x="2225.46" y="-270.04" font-family="Times,serif" font-size="14.00">x</text>
</g>
<!-- l2j2start -->
<g id="node23" class="node">
<title>l2j2start</title>
<ellipse fill="none" stroke="black" cx="2298.65" cy="-177.24" rx="50.89" ry="50.89"/>
<text text-anchor="middle" x="2298.65" y="-173.54" font-family="Times,serif" font-size="14.00">l2j2start</text>
</g>
<!-- l2start&#45;&gt;l2j2start -->
<g id="edge25" class="edge">
<title>l2start&#45;&gt;l2j2start</title>
<path fill="none" stroke="black" d="M2199.94,-219.65C2213.08,-213.95 2228.07,-207.44 2242.29,-201.27"/>
<polygon fill="black" stroke="black" points="2243.73,-204.46 2251.51,-197.27 2240.94,-198.04 2243.73,-204.46"/>
<text text-anchor="middle" x="2225.46" y="-215.04" font-family="Times,serif" font-size="14.00">x</text>
</g>
<!-- l2end -->
<g id="node20" class="node">
<title>l2end</title>
<ellipse fill="none" stroke="black" cx="2570.73" cy="-238.24" rx="36.3" ry="36.3"/>
<ellipse fill="none" stroke="black" cx="2570.73" cy="-238.24" rx="40.29" ry="40.29"/>
<text text-anchor="middle" x="2570.73" y="-234.54" font-family="Times,serif" font-size="14.00">l2end</text>
</g>
<!-- l2j1end -->
<g id="node22" class="node">
<title>l2j1end</title>
<ellipse fill="none" stroke="black" cx="2439.84" cy="-294.24" rx="45.49" ry="45.49"/>
<text text-anchor="middle" x="2439.84" y="-290.54" font-family="Times,serif" font-size="14.00">l2j1end</text>
</g>
<!-- l2j1start&#45;&gt;l2j1end -->
<g id="edge27" class="edge">
<title>l2j1start&#45;&gt;l2j1end</title>
<path fill="none" stroke="black" d="M2349.51,-295.53C2360.62,-295.37 2372.46,-295.2 2383.76,-295.04"/>
<polygon fill="black" stroke="black" points="2384.01,-298.53 2393.96,-294.89 2383.91,-291.53 2384.01,-298.53"/>
<text text-anchor="middle" x="2371.85" y="-299.04" font-family="Times,serif" font-size="14.00">k</text>
</g>
<!-- l2j1end&#45;&gt;l2end -->
<g id="edge24" class="edge">
<title>l2j1end&#45;&gt;l2end</title>
<path fill="none" stroke="black" d="M2481.98,-276.37C2495.39,-270.55 2510.35,-264.04 2524.07,-258.08"/>
<polygon fill="black" stroke="black" points="2525.56,-261.25 2533.34,-254.06 2522.77,-254.83 2525.56,-261.25"/>
<text text-anchor="middle" x="2507.84" y="-270.04" font-family="Times,serif" font-size="14.00">x</text>
</g>
<!-- l2j2end -->
<g id="node24" class="node">
<title>l2j2end</title>
<ellipse fill="none" stroke="black" cx="2439.84" cy="-184.24" rx="45.49" ry="45.49"/>
<text text-anchor="middle" x="2439.84" y="-180.54" font-family="Times,serif" font-size="14.00">l2j2end</text>
</g>
<!-- l2j2start&#45;&gt;l2j2end -->
<g id="edge28" class="edge">
<title>l2j2start&#45;&gt;l2j2end</title>
<path fill="none" stroke="black" d="M2349.51,-179.75C2360.62,-180.31 2372.46,-180.91 2383.76,-181.47"/>
<polygon fill="black" stroke="black" points="2383.8,-184.98 2393.96,-181.99 2384.15,-177.99 2383.8,-184.98"/>
<text text-anchor="middle" x="2371.85" y="-185.04" font-family="Times,serif" font-size="14.00">i</text>
</g>
<!-- l2j2end&#45;&gt;l2end -->
<g id="edge26" class="edge">
<title>l2j2end&#45;&gt;l2end</title>
<path fill="none" stroke="black" d="M2481.98,-201.48C2495.14,-206.99 2509.8,-213.13 2523.31,-218.79"/>
<polygon fill="black" stroke="black" points="2522.33,-222.18 2532.91,-222.82 2525.04,-215.72 2522.33,-222.18"/>
<text text-anchor="middle" x="2507.84" y="-217.04" font-family="Times,serif" font-size="14.00">x</text>
</g>
</g>
</svg>
