<?xml version="1.0" encoding="UTF-8" standalone="no"?>
<!DOCTYPE svg PUBLIC "-//W3C//DTD SVG 1.1//EN"
 "http://www.w3.org/Graphics/SVG/1.1/DTD/svg11.dtd">
<!-- Generated by graphviz version 2.43.0 (0)
 -->
<!-- Title: DFA Pages: 1 -->
<svg width="416pt" height="191pt"
 viewBox="0.00 0.00 415.98 190.74" xmlns="http://www.w3.org/2000/svg" xmlns:xlink="http://www.w3.org/1999/xlink">
<g id="graph0" class="graph" transform="scale(1 1) rotate(0) translate(4 186.74)">
<title>DFA</title>
<polygon fill="white" stroke="transparent" points="-4,4 -4,-186.74 411.98,-186.74 411.98,4 -4,4"/>
<!-- {2,3,4} -->
<g id="node1" class="node">
<title>{2,3,4}</title>
<ellipse fill="none" stroke="black" cx="361.83" cy="-70.6" rx="46.29" ry="46.29"/>
<text text-anchor="middle" x="361.83" y="-66.9" font-family="Times,serif" font-size="14.00">{2,3,4}</text>
</g>
<!-- {2,3,4}&#45;&gt;{2,3,4} -->
<g id="edge6" class="edge">
<title>{2,3,4}&#45;&gt;{2,3,4}</title>
<path fill="none" stroke="black" d="M355.6,-116.44C356.13,-126.99 358.21,-134.74 361.83,-134.74 364.15,-134.74 365.83,-131.56 366.89,-126.5"/>
<polygon fill="black" stroke="black" points="370.38,-126.78 368.06,-116.44 363.43,-125.96 370.38,-126.78"/>
<text text-anchor="middle" x="361.83" y="-138.54" font-family="Times,serif" font-size="14.00">e</text>
</g>
<!-- {2,3,4}&#45;&gt;{2,3,4} -->
<g id="edge7" class="edge">
<title>{2,3,4}&#45;&gt;{2,3,4}</title>
<path fill="none" stroke="black" d="M349.28,-115.38C348.08,-135.42 352.27,-152.74 361.83,-152.74 369.75,-152.74 373.98,-140.86 374.52,-125.4"/>
<polygon fill="black" stroke="black" points="378.02,-125.33 374.38,-115.38 371.02,-125.43 378.02,-125.33"/>
<text text-anchor="middle" x="361.83" y="-156.54" font-family="Times,serif" font-size="14.00">a</text>
</g>
<!-- {1} -->
<g id="node2" class="node">
<title>{1}</title>
<ellipse fill="none" stroke="black" cx="238.09" cy="-32.6" rx="28.68" ry="28.68"/>
<ellipse fill="none" stroke="black" cx="238.09" cy="-32.6" rx="32.7" ry="32.7"/>
<text text-anchor="middle" x="238.09" y="-28.9" font-family="Times,serif" font-size="14.00">{1}</text>
</g>
<!-- {1}&#45;&gt;{2,3,4} -->
<g id="edge2" class="edge">
<title>{1}&#45;&gt;{2,3,4}</title>
<path fill="none" stroke="black" d="M269.22,-42.41C275.64,-44.47 282.38,-46.62 288.68,-48.6 294.75,-50.5 301.11,-52.47 307.44,-54.42"/>
<polygon fill="black" stroke="black" points="306.72,-57.86 317.3,-57.45 308.77,-51.17 306.72,-57.86"/>
<text text-anchor="middle" x="293.18" y="-55.4" font-family="Times,serif" font-size="14.00">e</text>
</g>
<!-- {1}&#45;&gt;{2,3,4} -->
<g id="edge3" class="edge">
<title>{1}&#45;&gt;{2,3,4}</title>
<path fill="none" stroke="black" d="M270.26,-27.15C279.26,-26.6 288.99,-27.02 297.68,-29.6 304.08,-31.49 310.44,-34.26 316.52,-37.48"/>
<polygon fill="black" stroke="black" points="314.79,-40.52 325.2,-42.48 318.28,-34.46 314.79,-40.52"/>
<text text-anchor="middle" x="293.18" y="-33.4" font-family="Times,serif" font-size="14.00">a</text>
</g>
<!-- {0} -->
<g id="node3" class="node">
<title>{0}</title>
<ellipse fill="none" stroke="black" cx="131.89" cy="-67.6" rx="28.7" ry="28.7"/>
<text text-anchor="middle" x="131.89" y="-63.9" font-family="Times,serif" font-size="14.00">{0}</text>
</g>
<!-- {0}&#45;&gt;{2,3,4} -->
<g id="edge5" class="edge">
<title>{0}&#45;&gt;{2,3,4}</title>
<path fill="none" stroke="black" d="M160.43,-70.88C173.97,-72.34 190.56,-73.88 205.49,-74.6 238.63,-76.19 275.79,-75.33 305.45,-74.01"/>
<polygon fill="black" stroke="black" points="305.79,-77.49 315.61,-73.52 305.45,-70.5 305.79,-77.49"/>
<text text-anchor="middle" x="238.09" y="-79.4" font-family="Times,serif" font-size="14.00">a</text>
</g>
<!-- {0}&#45;&gt;{1} -->
<g id="edge4" class="edge">
<title>{0}&#45;&gt;{1}</title>
<path fill="none" stroke="black" d="M159.18,-58.77C170.71,-54.89 184.5,-50.26 197.25,-45.98"/>
<polygon fill="black" stroke="black" points="198.37,-49.29 206.74,-42.79 196.15,-42.66 198.37,-49.29"/>
<text text-anchor="middle" x="182.99" y="-56.4" font-family="Times,serif" font-size="14.00">e</text>
</g>
<!-- start -->
<g id="node4" class="node">
<title>start</title>
<ellipse fill="none" stroke="black" cx="33.15" cy="-67.6" rx="33.29" ry="18"/>
<text text-anchor="middle" x="33.15" y="-63.9" font-family="Times,serif" font-size="14.00">start</text>
</g>
<!-- start&#45;&gt;{0} -->
<g id="edge1" class="edge">
<title>start&#45;&gt;{0}</title>
<path fill="none" stroke="black" d="M66.36,-67.6C74.9,-67.6 84.19,-67.6 92.99,-67.6"/>
<polygon fill="black" stroke="black" points="93.03,-71.1 103.03,-67.6 93.03,-64.1 93.03,-71.1"/>
</g>
</g>
</svg>
