<?xml version="1.0" encoding="UTF-8" standalone="no"?>
<!DOCTYPE svg PUBLIC "-//W3C//DTD SVG 1.1//EN"
 "http://www.w3.org/Graphics/SVG/1.1/DTD/svg11.dtd">
<!-- Generated by graphviz version 2.43.0 (0)
 -->
<!-- Title: NFA Pages: 1 -->
<svg width="423pt" height="183pt"
 viewBox="0.00 0.00 423.29 183.00" xmlns="http://www.w3.org/2000/svg" xmlns:xlink="http://www.w3.org/1999/xlink">
<g id="graph0" class="graph" transform="scale(1 1) rotate(0) translate(4 179)">
<title>NFA</title>
<polygon fill="white" stroke="transparent" points="-4,4 -4,-179 419.29,-179 419.29,4 -4,4"/>
<!-- 0 -->
<g id="node1" class="node">
<title>0</title>
<ellipse fill="none" stroke="black" cx="121.29" cy="-60" rx="18" ry="18"/>
<text text-anchor="middle" x="121.29" y="-56.3" font-family="Times,serif" font-size="14.00">0</text>
</g>
<!-- 1 -->
<g id="node3" class="node">
<title>1</title>
<ellipse fill="none" stroke="black" cx="205.29" cy="-110" rx="18" ry="18"/>
<ellipse fill="none" stroke="black" cx="205.29" cy="-110" rx="22" ry="22"/>
<text text-anchor="middle" x="205.29" y="-106.3" font-family="Times,serif" font-size="14.00">1</text>
</g>
<!-- 0&#45;&gt;1 -->
<g id="edge2" class="edge">
<title>0&#45;&gt;1</title>
<path fill="none" stroke="black" d="M136.95,-68.94C148.11,-75.74 163.77,-85.29 177.19,-93.47"/>
<polygon fill="black" stroke="black" points="175.67,-96.65 186.03,-98.86 179.31,-90.67 175.67,-96.65"/>
<text text-anchor="middle" x="161.29" y="-88.8" font-family="Times,serif" font-size="14.00">c</text>
</g>
<!-- 2 -->
<g id="node4" class="node">
<title>2</title>
<ellipse fill="none" stroke="black" cx="397.29" cy="-83" rx="18" ry="18"/>
<text text-anchor="middle" x="397.29" y="-79.3" font-family="Times,serif" font-size="14.00">2</text>
</g>
<!-- 0&#45;&gt;2 -->
<g id="edge3" class="edge">
<title>0&#45;&gt;2</title>
<path fill="none" stroke="black" d="M139.43,-61.44C185.57,-65.31 312.66,-75.98 368.9,-80.7"/>
<polygon fill="black" stroke="black" points="368.9,-84.21 379.16,-81.56 369.49,-77.24 368.9,-84.21"/>
<text text-anchor="middle" x="263.29" y="-76.8" font-family="Times,serif" font-size="14.00">b</text>
</g>
<!-- 3 -->
<g id="node5" class="node">
<title>3</title>
<ellipse fill="none" stroke="black" cx="263.29" cy="-18" rx="18" ry="18"/>
<text text-anchor="middle" x="263.29" y="-14.3" font-family="Times,serif" font-size="14.00">3</text>
</g>
<!-- 0&#45;&gt;3 -->
<g id="edge4" class="edge">
<title>0&#45;&gt;3</title>
<path fill="none" stroke="black" d="M134.07,-47.32C140.37,-41.36 148.6,-34.75 157.29,-31 182.11,-20.29 213.08,-17.59 234.94,-17.24"/>
<polygon fill="black" stroke="black" points="235.17,-20.74 245.17,-17.24 235.16,-13.74 235.17,-20.74"/>
<text text-anchor="middle" x="161.29" y="-34.8" font-family="Times,serif" font-size="14.00">c</text>
</g>
<!-- start -->
<g id="node2" class="node">
<title>start</title>
<ellipse fill="none" stroke="black" cx="33.15" cy="-60" rx="33.29" ry="18"/>
<text text-anchor="middle" x="33.15" y="-56.3" font-family="Times,serif" font-size="14.00">start</text>
</g>
<!-- start&#45;&gt;0 -->
<g id="edge1" class="edge">
<title>start&#45;&gt;0</title>
<path fill="none" stroke="black" d="M66.72,-60C75.43,-60 84.75,-60 93.13,-60"/>
<polygon fill="black" stroke="black" points="93.14,-63.5 103.14,-60 93.14,-56.5 93.14,-63.5"/>
</g>
<!-- 4 -->
<g id="node6" class="node">
<title>4</title>
<ellipse fill="none" stroke="black" cx="317.29" cy="-157" rx="18" ry="18"/>
<text text-anchor="middle" x="317.29" y="-153.3" font-family="Times,serif" font-size="14.00">4</text>
</g>
<!-- 1&#45;&gt;4 -->
<g id="edge5" class="edge">
<title>1&#45;&gt;4</title>
<path fill="none" stroke="black" d="M225.71,-118.29C243.86,-126.05 271.07,-137.68 290.93,-146.16"/>
<polygon fill="black" stroke="black" points="289.72,-149.45 300.29,-150.16 292.47,-143.01 289.72,-149.45"/>
<text text-anchor="middle" x="263.29" y="-144.8" font-family="Times,serif" font-size="14.00">c</text>
</g>
<!-- 2&#45;&gt;1 -->
<g id="edge6" class="edge">
<title>2&#45;&gt;1</title>
<path fill="none" stroke="black" d="M379.31,-85.41C347.39,-89.95 278.02,-99.81 237.48,-105.57"/>
<polygon fill="black" stroke="black" points="236.76,-102.14 227.35,-107.01 237.75,-109.07 236.76,-102.14"/>
<text text-anchor="middle" x="317.29" y="-99.8" font-family="Times,serif" font-size="14.00">c</text>
</g>
<!-- 3&#45;&gt;2 -->
<g id="edge7" class="edge">
<title>3&#45;&gt;2</title>
<path fill="none" stroke="black" d="M281.37,-19.47C296.02,-21.12 317.53,-24.47 335.29,-31 347.82,-35.6 350.82,-37.73 361.29,-46 367.17,-50.64 372.99,-56.25 378.14,-61.7"/>
<polygon fill="black" stroke="black" points="375.83,-64.36 385.15,-69.41 381.01,-59.65 375.83,-64.36"/>
<text text-anchor="middle" x="317.29" y="-34.8" font-family="Times,serif" font-size="14.00">c</text>
</g>
<!-- 4&#45;&gt;2 -->
<g id="edge8" class="edge">
<title>4&#45;&gt;2</title>
<path fill="none" stroke="black" d="M331.78,-146.01C340.41,-138.82 351.75,-129.11 361.29,-120 366.71,-114.83 372.37,-109.04 377.52,-103.59"/>
<polygon fill="black" stroke="black" points="380.36,-105.68 384.62,-95.98 375.24,-100.91 380.36,-105.68"/>
<text text-anchor="middle" x="357.29" y="-130.8" font-family="Times,serif" font-size="14.00">c</text>
</g>
</g>
</svg>
